<svg xmlns="http://www.w3.org/2000/svg" width="200" height="200" class="icon" viewBox="0 0 1024 1024"><path fill="#696969" d="M328 492.032h592c4.416 0 8 3.52 8 8V552a8 8 0 0 1-8 8H328a8 8 0 0 1-8-8v-52.032c0-4.416 3.584-8 8-8zM328 192h592c4.416 0 8 3.584 8 8v52.032a8 8 0 0 1-8 7.936H328a8 8 0 0 1-8-7.936v-51.968c0-4.48 3.584-8.064 8-8.064zm0 600h592c4.416 0 8 3.584 8 8v52.032a8 8 0 0 1-8 7.936H328a8 8 0 0 1-8-7.936V800c0-4.416 3.584-8 8-8zM136 491.968h80c4.416 0 8 3.584 8 8V552a8 8 0 0 1-8 8h-80a8 8 0 0 1-8-8v-52.032c0-4.416 3.584-8 8-8zM136 192h80c4.416 0 8 3.584 8 8v52.032a8 8 0 0 1-8 7.936h-80a8 8 0 0 1-8-7.936v-51.968c0-4.48 3.584-8.064 8-8.064zm0 600h80c4.416 0 8 3.584 8 8v52.032a8 8 0 0 1-8 7.936h-80a8 8 0 0 1-8-7.936V800c0-4.416 3.584-8 8-8z"/></svg>